<svg width="159" height="29" viewBox="0 0 159 29" fill="none" xmlns="http://www.w3.org/2000/svg">
<path d="M0.275568 28V1.81818H10.7585C12.6847 1.81818 14.2912 2.10369 15.5781 2.67472C16.8651 3.24574 17.8324 4.03835 18.4801 5.05256C19.1278 6.05824 19.4517 7.21733 19.4517 8.52983C19.4517 9.55256 19.2472 10.4517 18.8381 11.2273C18.429 11.9943 17.8665 12.625 17.1506 13.1193C16.4432 13.6051 15.6335 13.9503 14.7216 14.1548V14.4105C15.7188 14.4531 16.652 14.7344 17.5213 15.2543C18.3991 15.7741 19.1108 16.5028 19.6562 17.4403C20.2017 18.3693 20.4744 19.4773 20.4744 20.7642C20.4744 22.1534 20.1293 23.3935 19.4389 24.4844C18.7571 25.5668 17.7472 26.4233 16.4091 27.054C15.071 27.6847 13.4219 28 11.4616 28H0.275568ZM5.81108 23.4744H10.3239C11.8665 23.4744 12.9915 23.1804 13.6989 22.5923C14.4063 21.9957 14.7599 21.2031 14.7599 20.2145C14.7599 19.4901 14.5852 18.8509 14.2358 18.2969C13.8864 17.7429 13.3878 17.3082 12.7401 16.9929C12.1009 16.6776 11.3381 16.5199 10.4517 16.5199H5.81108V23.4744ZM5.81108 12.7741H9.91477C10.6733 12.7741 11.3466 12.642 11.9347 12.3778C12.5313 12.1051 13 11.7216 13.3409 11.2273C13.6903 10.733 13.8651 10.1406 13.8651 9.45028C13.8651 8.50426 13.5284 7.74148 12.8551 7.16193C12.1903 6.58239 11.2443 6.29261 10.017 6.29261H5.81108V12.7741ZM23.9741 28V8.36364H29.4201V28H23.9741ZM26.7099 5.83239C25.9002 5.83239 25.2056 5.56392 24.6261 5.02699C24.055 4.48153 23.7695 3.82954 23.7695 3.07102C23.7695 2.32102 24.055 1.67756 24.6261 1.14062C25.2056 0.59517 25.9002 0.322442 26.7099 0.322442C27.5195 0.322442 28.2099 0.59517 28.7809 1.14062C29.3604 1.67756 29.6502 2.32102 29.6502 3.07102C29.6502 3.82954 29.3604 4.48153 28.7809 5.02699C28.2099 5.56392 27.5195 5.83239 26.7099 5.83239ZM38.7173 22.3494L38.7301 15.8168H39.5227L45.8125 8.36364H52.0639L43.6136 18.233H42.3224L38.7173 22.3494ZM33.7827 28V1.81818H39.2287V28H33.7827ZM46.0554 28L40.277 19.4474L43.9077 15.5994L52.4347 28H46.0554ZM62.8761 28.3835C60.8562 28.3835 59.1175 27.9744 57.6602 27.1562C56.2113 26.3295 55.0948 25.1619 54.3107 23.6534C53.5266 22.1364 53.1346 20.3423 53.1346 18.2713C53.1346 16.2514 53.5266 14.4787 54.3107 12.9531C55.0948 11.4276 56.1985 10.2386 57.6218 9.38636C59.0536 8.53409 60.7326 8.10795 62.6587 8.10795C63.9542 8.10795 65.1602 8.31676 66.2766 8.73438C67.4016 9.14347 68.3817 9.76136 69.217 10.5881C70.0607 11.4148 70.717 12.4545 71.1857 13.7074C71.6545 14.9517 71.8889 16.4091 71.8889 18.0795V19.5753H55.3079V16.2003H66.7624C66.7624 15.4162 66.592 14.7216 66.2511 14.1165C65.9102 13.5114 65.4371 13.0384 64.832 12.6974C64.2354 12.348 63.5408 12.1733 62.7482 12.1733C61.9215 12.1733 61.1886 12.3651 60.5494 12.7486C59.9187 13.1236 59.4244 13.6307 59.0664 14.2699C58.7085 14.9006 58.5252 15.6037 58.5167 16.3793V19.5881C58.5167 20.5597 58.6957 21.3991 59.0536 22.1065C59.4201 22.8139 59.9357 23.3594 60.6005 23.7429C61.2653 24.1264 62.0536 24.3182 62.9656 24.3182C63.5707 24.3182 64.1246 24.233 64.6275 24.0625C65.1303 23.892 65.5607 23.6364 65.9187 23.2955C66.2766 22.9545 66.5494 22.5369 66.7369 22.0426L71.7738 22.375C71.5181 23.5852 70.994 24.642 70.2014 25.5455C69.4173 26.4403 68.4031 27.1392 67.1587 27.642C65.9229 28.1364 64.4954 28.3835 62.8761 28.3835ZM79.6104 28L72.119 1.81818H78.1658L82.4996 20.0099H82.717L87.4982 1.81818H92.6758L97.4442 20.0483H97.6744L102.008 1.81818H108.055L100.564 28H95.1687L90.1829 10.8821H89.9783L85.0053 28H79.6104ZM110.915 28V8.36364H116.362V28H110.915ZM113.651 5.83239C112.842 5.83239 112.147 5.56392 111.567 5.02699C110.996 4.48153 110.711 3.82954 110.711 3.07102C110.711 2.32102 110.996 1.67756 111.567 1.14062C112.147 0.59517 112.842 0.322442 113.651 0.322442C114.461 0.322442 115.151 0.59517 115.722 1.14062C116.302 1.67756 116.592 2.32102 116.592 3.07102C116.592 3.82954 116.302 4.48153 115.722 5.02699C115.151 5.56392 114.461 5.83239 113.651 5.83239ZM137.062 13.9631L132.076 14.2699C131.991 13.8437 131.808 13.4602 131.527 13.1193C131.245 12.7699 130.875 12.4929 130.414 12.2884C129.963 12.0753 129.422 11.9688 128.791 11.9688C127.947 11.9688 127.235 12.1477 126.656 12.5057C126.076 12.8551 125.787 13.3239 125.787 13.9119C125.787 14.3807 125.974 14.777 126.349 15.1009C126.724 15.4247 127.368 15.6847 128.279 15.8807L131.833 16.5966C133.743 16.9886 135.166 17.6193 136.103 18.4886C137.041 19.358 137.51 20.5 137.51 21.9148C137.51 23.2017 137.13 24.331 136.372 25.3026C135.622 26.2741 134.591 27.0327 133.278 27.5781C131.974 28.1151 130.47 28.3835 128.765 28.3835C126.166 28.3835 124.095 27.8423 122.552 26.7599C121.018 25.669 120.119 24.1861 119.855 22.3111L125.211 22.0298C125.373 22.8224 125.765 23.4276 126.387 23.8452C127.01 24.2543 127.806 24.4588 128.778 24.4588C129.733 24.4588 130.5 24.2756 131.079 23.9091C131.667 23.5341 131.966 23.0526 131.974 22.4645C131.966 21.9702 131.757 21.5653 131.348 21.25C130.939 20.9261 130.308 20.679 129.456 20.5085L126.055 19.831C124.137 19.4474 122.71 18.7827 121.772 17.8366C120.843 16.8906 120.379 15.6847 120.379 14.2188C120.379 12.9574 120.72 11.8707 121.402 10.9588C122.092 10.0469 123.059 9.34375 124.304 8.84943C125.556 8.35511 127.022 8.10795 128.701 8.10795C131.181 8.10795 133.133 8.6321 134.556 9.6804C135.988 10.7287 136.824 12.1562 137.062 13.9631ZM149.888 28.3835C147.868 28.3835 146.129 27.9744 144.672 27.1562C143.223 26.3295 142.107 25.1619 141.322 23.6534C140.538 22.1364 140.146 20.3423 140.146 18.2713C140.146 16.2514 140.538 14.4787 141.322 12.9531C142.107 11.4276 143.21 10.2386 144.634 9.38636C146.065 8.53409 147.744 8.10795 149.67 8.10795C150.966 8.10795 152.172 8.31676 153.288 8.73438C154.413 9.14347 155.393 9.76136 156.229 10.5881C157.072 11.4148 157.729 12.4545 158.197 13.7074C158.666 14.9517 158.901 16.4091 158.901 18.0795V19.5753H142.32V16.2003H153.774C153.774 15.4162 153.604 14.7216 153.263 14.1165C152.922 13.5114 152.449 13.0384 151.844 12.6974C151.247 12.348 150.553 12.1733 149.76 12.1733C148.933 12.1733 148.2 12.3651 147.561 12.7486C146.93 13.1236 146.436 13.6307 146.078 14.2699C145.72 14.9006 145.537 15.6037 145.528 16.3793V19.5881C145.528 20.5597 145.707 21.3991 146.065 22.1065C146.432 22.8139 146.947 23.3594 147.612 23.7429C148.277 24.1264 149.065 24.3182 149.977 24.3182C150.582 24.3182 151.136 24.233 151.639 24.0625C152.142 23.892 152.572 23.6364 152.93 23.2955C153.288 22.9545 153.561 22.5369 153.749 22.0426L158.786 22.375C158.53 23.5852 158.006 24.642 157.213 25.5455C156.429 26.4403 155.415 27.1392 154.17 27.642C152.935 28.1364 151.507 28.3835 149.888 28.3835Z" fill="white"/>
</svg>
